Coordinates
version=1
nRows=7
nColumns=33
inDegrees=yes

Units are S.I. units (second, meters, Newtons, ...)
Angles are in degrees.

endheader
time	ground_thorax_rot_x	ground_thorax_rot_y	ground_thorax_rot_z	ground_thorax_tx	ground_thorax_ty	ground_thorax_tz	clav_prot_r	clav_elev_r	scapula_abduction_r	scapula_elevation_r	scapula_upward_rot_r	scapula_winging_r	shoulder_elv_r	plane_of_elev_r	axial_rot_r	elbow_flexion_r	pro_sup_r	wrist_flex_r	wrist_dev_r	clav_prot_l	clav_elev_l	scapula_abduction_l	scapula_elevation_l	scapula_upward_rot_l	scapula_winging_l	shoulder_elv_l	plane_of_elev_l	axial_rot_l	elbow_flexion_l	pro_sup_l	wrist_flex_l	wrist_dev_l
      2.88000000	      2.15973218	      5.07232130	     12.91349129	     -0.12075587	      1.03528464	      0.02820407	      5.08410093	     10.79416422	     18.13835216	      7.29673970	     21.06011299	    -10.26928741	     12.05758793	    -75.26501900	     53.66211403	     55.80106026	    -23.96425002	     70.00000021	    -24.99999983	     10.84245283	     -4.68612433	    -16.29233875	    -21.37949979	    -44.09119620	     -0.76919360	     62.62096862	    -38.28295171	     -3.74285348	     68.59842608	     23.82359702	     -1.36106261	    -24.99999983
      2.89000000	      2.17170591	      5.09440520	     12.96666303	     -0.12106671	      1.03474652	      0.02822461	      5.05985873	     10.75115416	     18.08277581	      7.27092075	     21.03077732	    -10.24863464	     11.99602303	    -75.25154498	     53.70340909	     55.79502756	    -23.96816632	     70.00000021	    -24.99999983	     10.81896078	     -4.72046190	    -16.24925808	    -21.34734258	    -44.08965904	     -0.78479878	     62.58941553	    -38.20245598	     -3.71022173	     68.55210173	     23.82599970	     -1.40405725	    -24.99999983
      2.90000000	      1.64457511	      5.71087075	     12.93383724	     -0.12092789	      1.03457191	      0.02845773	      3.89014418	     10.50641681	     16.33766801	      6.92242628	     21.53897576	     -9.75681988	     11.46771341	    -74.69569257	     54.50182490	     55.26028582	    -25.28758229	     70.00000021	    -24.99999983	     11.32640105	     -4.19688654	    -17.27274820	    -22.00515074	    -44.50154871	     -0.46023202	     62.71568964	    -36.93223681	     -3.74680515	     67.78928460	     24.09834344	     -4.80542629	    -24.99999983
      2.91000000	      1.64364790	      5.71458075	     13.02325306	     -0.12118431	      1.03399222	      0.02852711	      3.88286007	     10.48682900	     16.33532244	      6.90489047	     21.54150639	     -9.75665175	     11.47107397	    -74.66907122	     54.49131146	     55.27779789	    -25.28785128	     70.00000021	    -24.99999983	     11.32215580	     -4.23024398	    -17.25743377	    -21.96014825	    -44.47015669	     -0.45243493	     62.72857156	    -36.87871540	     -3.72257845	     67.80714926	     24.09375316	     -4.81438591	    -24.99999983
      2.92000000	      1.65427737	      5.82745903	     13.01240179	     -0.12148908	      1.03395596	      0.02882730	      3.88929645	     10.22528915	     16.05444189	      6.84341768	     21.07576190	     -9.59726206	     11.87358043	    -74.50565554	     54.13071518	     55.57082835	    -25.42458749	     70.00000021	    -24.99999983	     11.48167909	     -4.75294926	    -17.59698339	    -21.52166490	    -44.62650527	     -0.26945575	     62.83516823	    -37.01430150	     -3.39262957	     67.77451423	     24.03897298	     -5.25458893	    -24.99999983
      2.93000000	      1.66025395	      5.82327821	     13.09807911	     -0.12154993	      1.03343283	      0.02892695	      3.88025843	     10.21283072	     16.05996400	      6.82560495	     21.09710770	     -9.60483679	     11.88600009	    -74.47232238	     54.11764937	     55.58368452	    -25.42648078	     70.00000021	    -24.99999983	     11.48439045	     -4.76665841	    -17.59224783	    -21.49567664	    -44.59823766	     -0.26558257	     62.85080571	    -36.97213719	     -3.37981300	     67.79122881	     24.03580098	     -5.25970692	    -24.99999983
      2.94000000	      1.65549431	      5.81962278	     13.17402448	     -0.12154907	      1.03300978	      0.02897689	      3.87126069	     10.20238066	     16.06476296	      6.80903552	     21.11921768	     -9.60893655	     11.90264720	    -74.43732635	     54.09992886	     55.60222648	    -25.43001483	     70.00000021	    -24.99999983	     11.48544907	     -4.78312286	    -17.58716346	    -21.46970548	    -44.57533604	     -0.26084833	     62.86434835	    -36.93508233	     -3.36545289	     67.80274286	     24.03257670	     -5.26464831	    -24.99999983
